<?xml version="1.0" encoding="UTF-8" standalone="no"?>
<!-- Created with Inkscape (http://www.inkscape.org/) -->

<svg
   xmlns:dc="http://purl.org/dc/elements/1.1/"
   xmlns:cc="http://creativecommons.org/ns#"
   xmlns:rdf="http://www.w3.org/1999/02/22-rdf-syntax-ns#"
   xmlns:svg="http://www.w3.org/2000/svg"
   xmlns="http://www.w3.org/2000/svg"
   xmlns:sodipodi="http://sodipodi.sourceforge.net/DTD/sodipodi-0.dtd"
   xmlns:inkscape="http://www.inkscape.org/namespaces/inkscape"
   width="24mm"
   height="24mm"
   viewBox="0 0 24 24"
   version="1.1"
   id="svg1398"
   sodipodi:docname="favicon.svg"
   inkscape:version="0.92.3 (2405546, 2018-03-11)">
  <defs
     id="defs1392" />
  <sodipodi:namedview
     id="base"
     pagecolor="#ffffff"
     bordercolor="#666666"
     borderopacity="1.0"
     inkscape:pageopacity="0.0"
     inkscape:pageshadow="2"
     inkscape:zoom="3.959798"
     inkscape:cx="-15.158478"
     inkscape:cy="68.824174"
     inkscape:document-units="mm"
     inkscape:current-layer="svg1398"
     showgrid="false"
     inkscape:pagecheckerboard="true"
     units="mm"
     inkscape:window-width="1920"
     inkscape:window-height="1001"
     inkscape:window-x="-9"
     inkscape:window-y="-9"
     inkscape:window-maximized="1"
     viewbox-height="10.58"
     scale-x="1" />
  <metadata
     id="metadata1395">
    <rdf:RDF>
      <cc:Work
         rdf:about="">
        <dc:format>image/svg+xml</dc:format>
        <dc:type
           rdf:resource="http://purl.org/dc/dcmitype/StillImage" />
        <dc:title></dc:title>
      </cc:Work>
    </rdf:RDF>
  </metadata>
  <path
     inkscape:connector-curvature="0"
     id="path1943"
     d="M 12.000001,0 A 12,12 0 0 0 0,12 12,12 0 0 0 12.000001,24 12,12 0 0 0 24,12 12,12 0 0 0 12.000001,0 Z M 4.4531249,7.22695 h 2.7164065 l 0.066797,0.0668 1.8421865,7.51407 1.9734391,-7.51407 0.0539,-0.0668 h 1.815234 l 0.05274,0.0668 1.961718,7.46016 1.855077,-7.46016 0.05274,-0.0668 h 2.690624 l 0.05273,0.0398 -3.100782,10.8797 -0.05274,0.0668 h -2.677734 l -0.06563,-0.0668 -1.696874,-6.00235 -1.695704,6.00235 -0.05273,0.0668 H 7.566792 L 7.514064,18.14645 4.4132819,7.26675 Z"
     style="opacity:1;fill:#0f0f1d;fill-opacity:1;stroke:none;stroke-width:2.11666632;stroke-linecap:square;stroke-linejoin:miter;stroke-miterlimit:4;stroke-dasharray:none;stroke-dashoffset:0;stroke-opacity:1;paint-order:markers fill stroke" />
</svg>
